<svg width="181" height="68" viewBox="0 0 181 68" fill="none" xmlns="http://www.w3.org/2000/svg">
<path d="M34.4185 16.1239C35.8542 16.0052 37.2996 16.1315 38.693 16.4974C40.3804 16.9701 41.4147 18.0553 41.6104 19.7783C42.2559 25.448 42.8379 31.1228 43.4529 36.7925C44.0781 42.5486 44.6854 48.3098 45.3665 54.0735C45.6664 56.597 45.0819 58.1193 43.2928 59.0342C42.688 59.3417 42.0755 59.3442 41.4427 59.3442C37.0843 59.3442 32.7209 59.4433 28.365 59.3061C26.4743 59.2476 24.9546 59.8144 23.4221 60.7928C19.8643 63.08 16.2607 65.2706 12.6596 67.479C10.8604 68.5819 9.48295 67.7967 9.46517 65.6823C9.44738 63.9034 9.43721 62.1244 9.46517 60.3455C9.48041 59.5831 9.21103 59.3061 8.44863 59.329C6.96958 59.3722 5.48291 59.2629 4.0064 59.3518C1.28464 59.517 -0.222363 57.1765 0.0266872 54.9274C1.09066 45.3093 2.16139 35.6912 3.23891 26.0731C3.4346 24.3069 3.63791 22.5432 3.77515 20.7719C4.00386 17.8215 5.45241 16.3272 8.4156 16.1264C9.34318 16.0629 10.2758 16.0908 11.2111 16.0756L15.079 16.1416L30.5226 16.1594C31.8162 15.9815 33.1173 16.0629 34.4185 16.1239ZM22.5505 45.5448C25.9177 45.4152 28.7183 44.3097 30.9953 42.0124C32.2116 40.7712 33.1278 39.2682 33.6739 37.6184C33.9102 36.9246 33.9992 36.0021 33.1122 35.8115C32.3498 35.6463 31.2062 35.1787 30.7157 36.1165C30.3676 36.7798 29.9762 37.4278 29.5899 38.0606C28.8675 39.2487 27.8488 40.2287 26.6335 40.9044C25.4182 41.5802 24.0482 41.9285 22.6577 41.9151C21.2673 41.9018 19.9042 41.5273 18.7021 40.8284C17.5 40.1295 16.5002 39.1302 15.8007 37.9284C15.4119 37.2753 15.4017 36.4621 14.8706 35.87C14.6309 35.5702 14.3006 35.356 13.9292 35.2594C13.5577 35.1627 13.165 35.1888 12.8096 35.3338C11.9658 35.6362 11.6685 36.3274 11.7651 37.1533C11.8369 37.6553 11.986 38.1431 12.2073 38.5994C14.2657 43.0619 17.9075 45.1661 22.5505 45.5346V45.5448ZM20.0091 28.5916C20.0038 28.0393 19.7799 27.5117 19.3865 27.124C18.9932 26.7364 18.4623 26.5203 17.91 26.523C17.6359 26.5085 17.3619 26.5515 17.1055 26.6494C16.8491 26.7473 16.6161 26.8979 16.4214 27.0913C16.2268 27.2848 16.0748 27.5169 15.9753 27.7727C15.8759 28.0284 15.8311 28.3022 15.8439 28.5764C15.8388 28.85 15.8883 29.1219 15.9895 29.3762C16.0906 29.6305 16.2414 29.8621 16.433 30.0575C16.6247 30.2529 16.8533 30.4082 17.1055 30.5143C17.3578 30.6204 17.6287 30.6752 17.9024 30.6755C18.4595 30.6716 18.993 30.4497 19.3887 30.0574C19.7843 29.6651 20.0107 29.1335 20.0193 28.5764L20.0091 28.5916ZM29.6662 28.5382C29.6688 28.2644 29.615 27.9929 29.5081 27.7408C29.4013 27.4886 29.2436 27.2612 29.045 27.0726C28.8464 26.884 28.6112 26.7384 28.3538 26.6447C28.0965 26.551 27.8226 26.5113 27.5493 26.528C27.2758 26.5232 27.0043 26.5736 26.7508 26.6761C26.4973 26.7787 26.267 26.9314 26.0739 27.125C25.8808 27.3186 25.7287 27.5491 25.6267 27.8029C25.5248 28.0567 25.4751 28.3284 25.4806 28.6018C25.5059 29.1452 25.7417 29.6574 26.1381 30.0301C26.5344 30.4027 27.0602 30.6064 27.6042 30.5982C28.1481 30.5899 28.6675 30.3703 29.0524 29.9858C29.4373 29.6013 29.6574 29.0822 29.6662 28.5382Z" fill="url(#paint0_linear_523_708)"/>
<path d="M34.4188 16.1239C33.1176 16.0731 31.8164 15.9917 30.5178 16.1544C30.5051 14.4644 30.5661 12.7719 30.4645 11.0895C30.2739 7.86203 27.8316 4.94458 24.8125 4.2076C21.2979 3.35117 17.984 4.67521 16.172 7.64602C14.538 10.317 14.942 13.2369 15.0818 16.1366L11.2139 16.0705C10.9826 12.2433 10.7997 8.44654 13.1707 5.05641C15.7781 1.32828 20.8354 -0.763236 25.0616 0.258378C30.1849 1.49855 33.7377 5.37152 34.2942 10.2915C34.5077 12.2255 34.3984 14.1696 34.4188 16.1239Z" fill="#0A0A0A"/>
<path d="M134.664 44.4622C134.664 41.2042 134.69 37.9487 134.646 34.6907C134.646 33.8775 134.873 33.5268 135.694 33.3133C138.166 32.6729 140.626 32.1469 143.198 32.5814C147.719 33.3438 150.413 36.9246 150.06 41.7302C149.737 46.2284 146.502 49.278 141.993 49.3847C140.851 49.4359 139.707 49.3047 138.606 48.9959C137.749 48.7417 137.605 49.0416 137.63 49.8218C137.683 51.3466 137.605 52.8714 137.668 54.3962C137.706 55.2475 137.414 55.5576 136.583 55.4458C136.289 55.4064 135.99 55.4064 135.696 55.4458C134.832 55.5728 134.616 55.1916 134.644 54.3733C134.7 52.7265 134.662 51.0696 134.662 49.4254V44.4622H134.664ZM137.653 40.7391V42.518C137.653 46.6019 137.866 46.8078 142.001 46.668C144.896 46.5689 146.954 44.3808 147.084 41.2601C147.229 38.0173 145.305 35.4989 142.418 35.1914C141.069 35.0699 139.709 35.1409 138.38 35.4023C137.78 35.509 137.617 35.7556 137.635 36.307C137.66 37.781 137.645 39.2499 137.645 40.7391H137.653Z" fill="#0A0A0A"/>
<path d="M162.394 41.9588C160.661 41.9588 158.92 42.0376 157.192 41.9308C155.947 41.8546 156.018 42.3603 156.336 43.2345C157.352 45.9944 160.133 47.3007 163.434 46.5383C164.389 46.3429 165.293 45.9499 166.087 45.3845C166.614 44.9898 166.953 45.0846 167.104 45.6691C167.269 46.3248 168.478 46.9703 167.612 47.5828C163.657 50.3782 155.472 50.5536 153.36 44.0249C152.57 41.7187 152.671 39.2002 153.645 36.9651C155.03 33.763 158.27 31.9993 161.8 32.4517C165.645 32.9422 168.125 35.3386 168.699 39.1176C169.129 41.9563 169.129 41.9563 166.328 41.9588H162.394ZM160.941 39.2802C162.252 39.2802 163.566 39.2497 164.877 39.2802C165.619 39.3031 165.721 39.0846 165.495 38.4009C164.816 36.3679 163.208 35.1379 161.03 35.1201C158.725 35.0998 156.964 36.3171 156.275 38.3781C156.072 38.9829 156.077 39.3133 156.877 39.2828C158.229 39.2497 159.584 39.2802 160.941 39.2802Z" fill="#0A0A0A"/>
<path d="M107.121 41.959C105.388 41.959 103.649 42.0352 101.921 41.9335C100.651 41.8598 100.734 42.3656 101.08 43.2499C102.183 46.081 104.996 47.3644 108.303 46.4927C109.216 46.291 110.08 45.9082 110.844 45.3669C111.352 44.9654 111.723 45.0721 111.86 45.6668C112 46.3377 113.263 46.8764 112.252 47.6719C109.283 50.0023 103.413 49.959 100.562 47.6287C97.6645 45.2728 96.7497 40.5663 98.4396 36.8356C99.8247 33.786 102.935 32.0834 106.432 32.4366C110.013 32.7949 112.503 34.9449 113.311 38.3706C114.12 41.7963 114.013 41.959 110.569 41.959H107.121ZM105.627 39.2855C106.854 39.2855 108.087 39.222 109.309 39.3033C110.442 39.377 110.458 38.9399 110.112 38.0682C109.296 36.0224 107.533 34.9805 105.029 35.1431C103.174 35.2626 101.418 36.7848 100.93 38.6069C100.745 39.2982 101.093 39.288 101.568 39.2855C102.917 39.2779 104.272 39.2829 105.627 39.2855Z" fill="#0A0A0A"/>
<path d="M69.3845 25.2727C71.7197 25.3028 74.0106 25.9142 76.0504 27.0516C77.5294 27.8445 76.3045 28.5764 76.0936 29.3109C75.7962 30.3427 75.2321 29.7149 74.7619 29.4583C70.645 27.2092 65.6894 27.7556 62.7796 30.7823C59.8215 33.8598 59.4047 39.1865 61.8393 42.7596C64.3171 46.3911 69.2091 47.6567 73.6361 45.8092C73.8699 45.7101 74.0961 45.5932 74.3223 45.4813C75.8852 44.7012 75.8471 44.7189 76.6095 46.442C76.8483 46.9909 76.7645 47.2603 76.2689 47.5602C70.7949 50.8639 62.317 49.7965 58.8354 43.7304C55.0005 37.0365 57.6613 25.4735 69.3845 25.2727Z" fill="#0A0A0A"/>
<path d="M117.908 36.4292C117.926 33.8167 118.262 33.3973 120.648 32.8942C122.425 32.4941 124.258 32.4021 126.066 32.6222C129.037 33.0187 130.895 34.8103 131.014 37.7837C131.154 41.2018 131.065 44.63 131.1 48.0532C131.1 48.5869 130.905 48.8156 130.399 48.8842C127.172 49.3238 123.944 49.8067 120.694 49.1155C117.065 48.3531 115.314 45.1764 116.861 42.1014C117.949 39.9438 120.041 39.4686 122.198 39.2729C123.841 39.1062 125.499 39.16 127.128 39.433C127.997 39.5906 128.112 39.2856 128.086 38.5334C128.023 36.6375 127.004 35.5092 124.943 35.2296C122.882 34.9501 120.91 35.377 118.976 36.0505C118.625 36.1674 118.277 36.297 117.908 36.4292ZM124.498 46.7063C125.423 46.6072 126.343 46.4725 127.268 46.4216C127.83 46.3886 128.203 46.2488 128.061 45.6186C127.807 44.4648 128.823 42.6706 127.504 42.2361C125.385 41.5774 123.112 41.605 121.009 42.3149C120.063 42.6198 119.484 43.2704 119.469 44.2564C119.454 45.2425 120.069 45.8778 120.994 46.2158C122.13 46.6199 123.309 46.658 124.498 46.7063Z" fill="#0A0A0A"/>
<path d="M80.2795 37.2881C80.2795 33.8166 80.3075 30.3477 80.2617 26.8686C80.2617 25.9843 80.3837 25.598 81.4079 25.6412C83.2579 25.72 83.2605 25.6412 83.2579 27.5396C83.2579 28.8102 83.3545 30.0809 83.2325 31.3515C83.1105 32.6222 83.5959 32.8154 84.7014 32.64C86.2903 32.3763 87.9112 32.3703 89.502 32.6222C92.516 33.1178 94.1933 34.8408 94.2949 37.9031C94.4093 41.3263 94.3483 44.7647 94.4017 48.1802C94.4017 48.8765 94.1475 49.0849 93.5122 49.0189C93.1332 48.9731 92.7501 48.9731 92.3712 49.0189C91.5757 49.1332 91.38 48.8156 91.3927 48.0405C91.4385 45.0798 91.4156 42.1166 91.408 39.1458C91.408 36.3808 90.2517 35.1737 87.502 35.1432C86.4498 35.1432 85.3952 35.3338 84.3405 35.3541C83.4765 35.3694 83.2249 35.7048 83.2376 36.574C83.2859 40.297 83.2249 44.0226 83.2808 47.7558C83.2808 48.7215 83.0902 49.0951 82.0457 49.0417C80.2821 48.9528 80.2795 49.0163 80.2821 47.1866C80.2804 43.8896 80.2795 40.5901 80.2795 37.2881Z" fill="#0A0A0A"/>
<path d="M172.121 41.2324C172.121 39.0749 172.159 36.9122 172.1 34.7571C172.077 33.8906 172.283 33.5119 173.221 33.3543C175.534 32.9706 177.851 32.9452 180.177 32.9299C180.759 32.9299 181.053 33.0621 180.99 33.6923C180.953 34.0718 180.953 34.4539 180.99 34.8334C181.053 35.484 180.83 35.7203 180.141 35.7C178.831 35.6578 177.519 35.7147 176.217 35.8702C175.307 35.9795 175.036 36.2667 175.051 37.1968C175.109 40.7928 175.051 44.3913 175.094 47.9873C175.107 48.8463 174.84 49.0419 174.032 49.0292C172.126 49.0013 172.123 49.0292 172.123 47.1944C172.123 45.2088 172.122 43.2215 172.121 41.2324Z" fill="#0A0A0A"/>
<path d="M22.55 45.5346C17.9069 45.1661 14.2652 43.0696 12.2067 38.5892C11.9855 38.1329 11.8364 37.6451 11.7646 37.1432C11.668 36.3173 11.9653 35.6184 12.809 35.3236C13.1644 35.1787 13.5572 35.1526 13.9287 35.2492C14.3001 35.3458 14.6303 35.56 14.8701 35.8598C15.4012 36.4519 15.4114 37.2652 15.8002 37.9183C16.4997 39.12 17.4995 40.1194 18.7016 40.8183C19.9037 41.5172 21.2668 41.8916 22.6572 41.905C24.0477 41.9183 25.4177 41.57 26.633 40.8943C27.8482 40.2185 28.867 39.2386 29.5894 38.0504C29.9757 37.4176 30.3671 36.7798 30.7152 36.1063C31.2057 35.1686 32.3442 35.6362 33.1117 35.8014C33.9986 35.992 33.9097 36.9145 33.6733 37.6082C33.1273 39.258 32.2111 40.761 30.9948 42.0022C28.7177 44.2996 25.9172 45.405 22.55 45.5346Z" fill="#FEFEFE"/>
<path d="M20.0199 28.5765C20.0074 29.1292 19.7808 29.6555 19.3877 30.0443C18.9947 30.433 18.466 30.654 17.9132 30.6604C17.6395 30.6601 17.3686 30.6053 17.1163 30.4992C16.864 30.3931 16.6354 30.2378 16.4438 30.0424C16.2522 29.847 16.1014 29.6154 16.0003 29.3611C15.8991 29.1068 15.8496 28.8349 15.8547 28.5613C15.8419 28.2871 15.8866 28.0133 15.9861 27.7576C16.0856 27.5018 16.2375 27.2697 16.4322 27.0762C16.6269 26.8828 16.8599 26.7322 17.1163 26.6343C17.3727 26.5365 17.6467 26.4934 17.9208 26.5079C18.4731 26.5052 19.0039 26.7213 19.3973 27.1089C19.7907 27.4966 20.0146 28.0243 20.0199 28.5765Z" fill="#FEFEFE"/>
<path d="M29.6792 28.5281C29.6703 29.072 29.4502 29.5912 29.0653 29.9757C28.6805 30.3602 28.1611 30.5798 27.6171 30.588C27.0732 30.5963 26.5474 30.3925 26.151 30.0199C25.7547 29.6473 25.5189 29.135 25.4936 28.5916C25.4881 28.3182 25.5378 28.0465 25.6397 27.7928C25.7417 27.539 25.8937 27.3084 26.0869 27.1148C26.28 26.9212 26.5102 26.7686 26.7637 26.666C27.0172 26.5634 27.2888 26.5131 27.5622 26.5179C27.8356 26.5011 28.1094 26.5408 28.3668 26.6345C28.6241 26.7282 28.8594 26.8739 29.058 27.0625C29.2566 27.251 29.4142 27.4785 29.5211 27.7306C29.6279 27.9828 29.6818 28.2542 29.6792 28.5281Z" fill="#FEFEFE"/>
<defs>
<linearGradient id="paint0_linear_523_708" x1="2.22748" y1="42.9298" x2="47.3538" y2="37.5777" gradientUnits="userSpaceOnUse">
<stop offset="0.17" stop-color="#8EC6CE"/>
<stop offset="0.23" stop-color="#78ABC9"/>
<stop offset="0.34" stop-color="#5480C1"/>
<stop offset="0.44" stop-color="#365CBB"/>
<stop offset="0.55" stop-color="#1F41B6"/>
<stop offset="0.66" stop-color="#0F2DB2"/>
<stop offset="0.77" stop-color="#0521B0"/>
<stop offset="0.88" stop-color="#021DAF"/>
</linearGradient>
</defs>
</svg>
