<svg width="24" height="25" viewBox="0 0 24 25" fill="none" xmlns="http://www.w3.org/2000/svg">
<path d="M12.2093 10.7096V14.1881H17.1483C16.6887 16.3985 14.7644 17.6685 12.2093 17.6685C9.2333 17.6285 6.84224 15.2577 6.84224 12.3471C6.84224 9.43638 9.2333 7.06566 12.2093 7.0256C13.4464 7.02415 14.6453 7.44397 15.6003 8.21296L18.28 5.5923C15.2061 2.94953 10.7169 2.60962 7.26368 4.75817C3.81044 6.90672 2.22311 11.0274 3.36842 14.8701C4.51374 18.7128 8.11645 21.354 12.2093 21.3516C16.8134 21.3516 21 18.0767 21 12.3466C20.9929 11.7948 20.9238 11.2456 20.7939 10.7086L12.2093 10.7096Z" fill="white"/>
</svg>
