<svg width="27" height="24" viewBox="0 0 27 24" fill="none" xmlns="http://www.w3.org/2000/svg">
<path d="M4.99156 0C4.99156 3.97392 4.99156 7.95015 5.01305 11.9241C5.03455 15.5206 6.55575 18.3509 10.028 19.8857C13.5003 21.4205 16.9654 21.0362 20.1033 18.8318C21.0535 18.1438 21.8117 17.2393 22.3099 16.1994C22.5105 15.8013 22.7278 15.6242 23.1982 15.638C24.1535 15.6679 25.1087 15.6748 26.0639 15.638C26.6108 15.6173 26.723 15.8244 26.7183 16.2961C26.6968 18.5672 26.6777 20.8384 26.7183 23.1095C26.735 23.8159 26.5224 24 25.7893 23.9931C21.6651 23.9609 17.5409 23.977 13.4167 23.977C9.5695 23.977 5.72231 23.9471 1.87751 24C0.962882 24.0115 0.771839 23.7584 0.776615 22.9208C0.812436 15.5022 0.79811 8.08131 0.793334 0.660409C0.778779 0.439166 0.74765 0.219223 0.700195 0.0023033L4.99156 0Z" fill="#010202"/>
</svg>
