<svg width="30" height="35" viewBox="0 0 30 35" fill="none" xmlns="http://www.w3.org/2000/svg">
<path d="M14.5397 30.9049C7.56514 30.9049 1.88672 24.399 1.88672 16.408C1.88672 8.41705 7.56514 1.91113 14.5397 1.91113C21.5143 1.91113 27.1927 8.41705 27.1927 16.408C27.1927 24.399 21.5143 30.9049 14.5397 30.9049ZM14.5397 4.03263C8.57738 4.03263 3.73838 9.59094 3.73838 16.408C3.73838 23.2251 8.57738 28.7834 14.5397 28.7834C20.5021 28.7834 25.3411 23.2251 25.3411 16.408C25.3411 9.59094 20.5021 4.03263 14.5397 4.03263Z" fill="#028090" fill-opacity="0.6"/>
<path d="M27.501 32.3192C27.2665 32.3192 27.0319 32.2202 26.8467 32.008L24.3779 29.1794C24.0199 28.7692 24.0199 28.0903 24.3779 27.6802C24.7359 27.27 25.3284 27.27 25.6864 27.6802L28.1553 30.5088C28.5132 30.919 28.5132 31.5979 28.1553 32.008C27.9701 32.2202 27.7355 32.3192 27.501 32.3192Z" fill="#028090" fill-opacity="0.6"/>
</svg>
