<svg width="18" height="21" viewBox="0 0 18 21" fill="none" xmlns="http://www.w3.org/2000/svg">
<path d="M0.915334 0.540322C1.23957 0.306626 1.67182 0.288438 2.01454 0.494071L17.0145 9.49407C17.3157 9.6748 17.5 10.0003 17.5 10.3516C17.5 10.7028 17.3157 11.0283 17.0145 11.2091L2.01454 20.2091C1.67182 20.4147 1.23957 20.3965 0.915334 20.1628C0.591098 19.9291 0.437155 19.5248 0.523857 19.1346L2.25343 11.3516L7.5 11.3516C8.05228 11.3516 8.5 10.9038 8.5 10.3516C8.5 9.79928 8.05228 9.35156 7.5 9.35156L2.25343 9.35156L0.523857 1.56849C0.437155 1.17833 0.591098 0.774018 0.915334 0.540322Z" fill="white"/>
</svg>
