<svg width="35" height="24" viewBox="0 0 35 24" fill="none" xmlns="http://www.w3.org/2000/svg">
<path d="M27.9671 8.10242H25.8759L26.506 1.30987C26.5072 1.29757 26.5074 1.28544 26.5074 1.27332C26.5074 1.27229 26.5076 1.27131 26.5076 1.27028C26.5076 1.27009 26.5076 1.26997 26.5076 1.26979C26.5076 1.08491 26.3888 0.921966 26.2142 0.851122C26.2127 0.850513 26.2113 0.849782 26.2098 0.849173C26.1989 0.844909 26.1877 0.841254 26.1764 0.837721C26.1722 0.836442 26.1682 0.834858 26.164 0.833639C26.1548 0.83102 26.1453 0.828949 26.1359 0.826817C26.1293 0.825355 26.1229 0.823589 26.1162 0.82237C26.108 0.820847 26.0994 0.819873 26.091 0.818716C26.0831 0.817619 26.0753 0.81634 26.0673 0.81567C26.0659 0.815548 26.0647 0.815304 26.0634 0.815182C26.0548 0.814451 26.0464 0.814573 26.0379 0.814268C26.0321 0.814086 26.0266 0.813477 26.0209 0.813477H26.0148C26.0142 0.813477 26.0137 0.813477 26.0133 0.813477H16.0632C15.7946 0.813477 15.5766 1.01815 15.5766 1.27034C15.5766 1.52192 15.7946 1.7272 16.0632 1.7272H25.4905L24.5222 12.1665C24.522 12.1673 24.522 12.1681 24.5219 12.1688L24.2776 14.8029H7.37031L7.6531 12.0618H10.8723C11.1411 12.0618 11.3589 11.8573 11.3589 11.605C11.3589 11.3526 11.1411 11.1481 10.8723 11.1481H7.74743L8.34455 5.3615H13.4681C13.7369 5.3615 13.9547 5.15694 13.9547 4.90464C13.9547 4.65233 13.7369 4.44777 13.4681 4.44777H8.43888L8.71967 1.7272H14.1169C14.3848 1.7272 14.6035 1.52192 14.6035 1.27034C14.6035 1.01815 14.3848 0.813477 14.1169 0.813477H8.27805C8.2778 0.813477 8.2776 0.813537 8.27734 0.813537C8.04878 0.813477 7.85052 0.964546 7.80258 1.17397C7.80225 1.17549 7.80167 1.17696 7.80135 1.17848C7.79888 1.18987 7.79726 1.2015 7.79564 1.2132C7.79518 1.21692 7.79434 1.22045 7.79395 1.22416C7.79389 1.2249 7.79369 1.22557 7.79363 1.2263L7.4612 4.44777H1.56274C1.29396 4.44777 1.07617 4.65233 1.07617 4.90464C1.07617 5.15694 1.29396 5.3615 1.56274 5.3615H7.36687L6.76975 11.1481H5.03374C4.76496 11.1481 4.54717 11.3526 4.54717 11.605C4.54717 11.8573 4.76496 12.0618 5.03374 12.0618H6.67549L6.35033 15.2124C6.35026 15.2129 6.35027 15.2134 6.3502 15.2138L5.84748 20.0857C5.84741 20.0862 5.84735 20.0868 5.84728 20.0873L5.84709 20.0891C5.84644 20.0954 5.8465 20.1017 5.84611 20.108C5.84566 20.1164 5.84475 20.1246 5.84475 20.1331C5.84475 20.1335 5.84482 20.1339 5.84482 20.1343C5.84482 20.1461 5.84572 20.1576 5.84663 20.1692C5.84702 20.1729 5.84689 20.1767 5.84735 20.1804C5.84864 20.1922 5.85078 20.2038 5.85306 20.2154C5.8537 20.2188 5.85403 20.2223 5.85474 20.2256C5.85662 20.2344 5.85928 20.2429 5.86175 20.2514C5.86344 20.2575 5.8648 20.2636 5.86674 20.2695C5.86733 20.2712 5.86811 20.2728 5.86863 20.2745C5.89218 20.3424 5.93214 20.4035 5.9843 20.4533C5.98527 20.4542 5.98605 20.4553 5.98702 20.4561C5.99221 20.461 5.99786 20.4654 6.00331 20.47C6.03685 20.4989 6.07474 20.5234 6.11619 20.5426C6.12482 20.5466 6.13332 20.5508 6.14214 20.5542C6.1448 20.5553 6.14766 20.5561 6.15038 20.5571C6.16258 20.5616 6.17484 20.566 6.18749 20.5697C6.18866 20.57 6.18976 20.5702 6.19093 20.5706C6.20533 20.5746 6.21986 20.5781 6.23472 20.581C6.23667 20.5814 6.23868 20.5815 6.24056 20.5818C6.2547 20.5843 6.26891 20.5865 6.28338 20.5878C6.2837 20.5878 6.28396 20.5879 6.28429 20.5879C6.30025 20.5894 6.31608 20.5901 6.33178 20.5901C6.33197 20.5901 6.33223 20.5901 6.33249 20.5901H8.49857C8.73777 22.2928 10.2925 23.6116 12.1704 23.6116C14.0481 23.6116 15.6028 22.2928 15.842 20.5901H23.6465C23.8858 22.2928 25.4405 23.6116 27.3182 23.6116C29.196 23.6116 30.7508 22.2928 30.9901 20.5901H33.1567C33.157 20.5901 33.1574 20.5901 33.1577 20.5901C33.174 20.5901 33.1899 20.5892 33.2057 20.5878C33.2086 20.5875 33.2113 20.587 33.2142 20.5867C33.2268 20.5853 33.2394 20.5836 33.2517 20.5813C33.2571 20.5803 33.2622 20.579 33.2674 20.5778C33.277 20.5758 33.2866 20.5736 33.2959 20.5709C33.3023 20.5692 33.3084 20.5671 33.3147 20.5651C33.3226 20.5625 33.3306 20.5599 33.3385 20.5569C33.3452 20.5544 33.3517 20.5516 33.3582 20.5489C33.3653 20.5458 33.3725 20.5426 33.3794 20.5393C33.386 20.5361 33.3924 20.5328 33.3988 20.5294C33.4054 20.5257 33.412 20.522 33.4186 20.5181C33.4247 20.5144 33.4308 20.5107 33.4366 20.5068C33.4433 20.5025 33.4495 20.4979 33.456 20.4933C33.4613 20.4893 33.4667 20.4854 33.4719 20.4813C33.4785 20.476 33.4848 20.4704 33.4912 20.4648C33.4956 20.4608 33.5002 20.4569 33.5045 20.4528C33.5112 20.4463 33.5177 20.4395 33.5241 20.4326C33.5275 20.4289 33.5311 20.4253 33.5344 20.4215C33.5415 20.4132 33.548 20.4047 33.5545 20.3961C33.5567 20.3931 33.5592 20.3903 33.5613 20.3873C33.5692 20.3761 33.5767 20.3647 33.5836 20.3529C33.5841 20.3521 33.5846 20.3515 33.5849 20.3507C33.5923 20.338 33.599 20.325 33.6051 20.3116C33.6067 20.3078 33.608 20.3038 33.6097 20.3C33.6136 20.2906 33.6175 20.2811 33.6208 20.2713C33.623 20.265 33.6245 20.2584 33.6264 20.2521C33.6285 20.2444 33.6308 20.2369 33.6326 20.2291C33.6342 20.2223 33.6353 20.2152 33.6365 20.2082C33.6376 20.202 33.639 20.196 33.6399 20.1897C33.6605 20.0345 34.0415 17.1643 34.2117 15.3083C34.2119 15.3066 34.212 15.3047 34.2122 15.303C34.2611 14.768 34.2925 14.3174 34.2925 14.0416C34.2925 10.7668 31.455 8.10242 27.9671 8.10242ZM25.7911 9.01626H27.7817L27.5275 11.7572H25.5369L25.7911 9.01626ZM12.1705 22.6978C10.6643 22.6978 9.43888 21.5473 9.43888 20.1331C9.43888 18.7189 10.6643 17.5683 12.1705 17.5683C13.6766 17.5683 14.902 18.7189 14.902 20.1331C14.902 21.5473 13.6766 22.6978 12.1705 22.6978ZM27.3182 22.6978C25.8121 22.6978 24.5868 21.5473 24.5868 20.1331C24.5868 18.7189 25.8122 17.5683 27.3182 17.5683C28.8245 17.5683 30.0499 18.7189 30.0499 20.1331C30.0499 21.5473 28.8245 22.6978 27.3182 22.6978ZM32.7268 19.676H30.9902C30.7511 17.9732 29.1963 16.6543 27.3184 16.6543C25.4406 16.6543 23.8858 17.9732 23.6467 19.676H15.8422C15.6031 17.9732 14.0483 16.6543 12.1705 16.6543C10.2926 16.6543 8.73777 17.9732 8.49863 19.676H6.86739L7.27605 15.7163H24.7235V15.7166C24.7237 15.7166 24.7239 15.7166 24.7242 15.7166C24.7405 15.7166 24.7566 15.7157 24.7726 15.7142C24.7756 15.714 24.7785 15.7134 24.7815 15.713C24.7942 15.7116 24.8068 15.7099 24.8193 15.7076C24.8247 15.7065 24.8299 15.7051 24.8352 15.7039C24.845 15.7017 24.8547 15.6996 24.8642 15.6969C24.8707 15.6951 24.8768 15.6929 24.8831 15.6908C24.8913 15.6881 24.8995 15.6855 24.9074 15.6825C24.9142 15.6798 24.9208 15.6769 24.9274 15.674C24.9346 15.6709 24.9418 15.6678 24.9487 15.6644C24.9553 15.6611 24.9618 15.6576 24.9684 15.654C24.9751 15.6504 24.9817 15.6467 24.9882 15.6428C24.9945 15.6389 25.0004 15.6349 25.0065 15.6309C25.0129 15.6266 25.0191 15.6222 25.0253 15.6177C25.0309 15.6135 25.0364 15.6091 25.0419 15.6047C25.048 15.5997 25.0541 15.5946 25.0599 15.5893C25.0648 15.5848 25.0698 15.5803 25.0746 15.5756C25.0804 15.5698 25.0861 15.5639 25.0916 15.5579C25.096 15.5531 25.1003 15.5484 25.1044 15.5435C25.1098 15.5371 25.1149 15.5305 25.12 15.5239C25.1238 15.5189 25.1275 15.5139 25.1311 15.5088C25.1359 15.5019 25.1404 15.4949 25.1448 15.4877C25.1481 15.4823 25.1515 15.4769 25.1544 15.4715C25.1585 15.4643 25.162 15.457 25.1657 15.4496C25.1686 15.4437 25.1715 15.4379 25.1741 15.4318C25.1773 15.4246 25.1799 15.4172 25.1827 15.4099C25.1851 15.4034 25.1877 15.3968 25.1898 15.3901C25.1919 15.3831 25.1937 15.3758 25.1956 15.3686C25.1975 15.3614 25.1996 15.3542 25.2011 15.3468C25.2026 15.3396 25.2035 15.3323 25.2047 15.325C25.2058 15.3175 25.2072 15.31 25.208 15.3024C25.2081 15.3013 25.2084 15.3002 25.2084 15.2991L25.4523 12.6707H27.967C29.4578 12.6707 30.1302 13.3959 30.8419 14.1638C31.4292 14.7974 32.0849 15.5043 33.1995 15.6767C33.058 17.082 32.8291 18.8861 32.7268 19.676ZM33.2827 14.7612C32.5596 14.6228 32.1148 14.1455 31.5759 13.5642C30.9019 12.8371 30.079 11.9499 28.5017 11.7846L28.7534 9.07096C31.3332 9.4292 33.3194 11.5215 33.3194 14.0417C33.3194 14.213 33.3058 14.4617 33.2827 14.7612Z" fill="#1D1D1D" stroke="#1D1D1D" stroke-width="0.2"/>
</svg>
