<svg width="24" height="25" viewBox="0 0 24 25" fill="none" xmlns="http://www.w3.org/2000/svg">
<path d="M19.6441 6.5321C20.5012 5.99593 21.1425 5.15165 21.4483 4.15692C20.6429 4.65697 19.7618 5.00922 18.8429 5.19844C17.569 3.78826 15.5505 3.44508 13.9155 4.36067C12.2804 5.27626 11.4335 7.22394 11.848 9.1154C8.54901 8.94209 5.47544 7.31141 3.3921 4.62915C2.30485 6.59156 2.86046 9.10017 4.66182 10.362C4.01043 10.3401 3.37348 10.1556 2.80409 9.82375C2.80409 9.84176 2.80409 9.85977 2.80409 9.87778C2.80447 11.922 4.18125 13.6828 6.09599 14.0879C5.49179 14.2599 4.85802 14.2852 4.24304 14.1619C4.78153 15.9101 6.32121 17.1077 8.07611 17.1434C6.62265 18.3371 4.82769 18.9845 2.98002 18.9813C2.65252 18.9818 2.32528 18.9621 2 18.9223C3.87627 20.184 6.06002 20.8536 8.29028 20.8513C11.3931 20.8736 14.375 19.5936 16.569 17.2975C18.763 15.0015 19.986 11.881 19.9644 8.63416C19.9644 8.44806 19.9603 8.26297 19.952 8.07888C20.7556 7.47118 21.4491 6.71835 22 5.85577C21.2514 6.203 20.4573 6.43098 19.6441 6.5321Z" fill="white"/>
</svg>
