<svg width="57" height="58" viewBox="0 0 57 58" fill="none" xmlns="http://www.w3.org/2000/svg">
<mask id="mask0_533_587" style="mask-type:alpha" maskUnits="userSpaceOnUse" x="0" y="0" width="57" height="58">
<path d="M0 57.0178V0H57V57.0178H0Z" fill="white"/>
</mask>
<g mask="url(#mask0_533_587)">
<path fill-rule="evenodd" clip-rule="evenodd" d="M57.0008 28.4911C57.0008 44.2459 44.2288 57.0178 28.474 57.0178C12.7192 57.0178 -0.0527344 44.2459 -0.0527344 28.4911C-0.0527344 12.7363 12.7192 -0.0356445 28.474 -0.0356445C44.2288 -0.0356445 57.0008 12.7363 57.0008 28.4911Z" fill="#0E538C"/>
</g>
<path fill-rule="evenodd" clip-rule="evenodd" d="M42.7366 42.7543H33.8219C33.3491 42.7543 32.8956 42.5664 32.5612 42.2321C32.2269 41.8977 32.039 41.4442 32.039 40.9714V36.0683C32.039 35.7137 32.1799 35.3736 32.4307 35.1228C32.6814 34.872 33.0216 34.7311 33.3762 34.7311H36.105C37.4172 34.7311 37.7836 33.8308 36.9198 32.7298L30.0439 23.9676C29.6116 23.4176 29.0428 23.1421 28.4732 23.1421C27.9035 23.1421 27.3348 23.4176 26.9024 23.9676L20.0266 32.7298C19.1628 33.8308 19.5292 34.7311 20.8414 34.7311H23.5701C23.9248 34.7311 24.2649 34.872 24.5157 35.1228C24.7665 35.3736 24.9073 35.7137 24.9073 36.0683V40.9714C24.9073 41.4442 24.7195 41.8977 24.3851 42.2321C24.0508 42.5664 23.5973 42.7543 23.1244 42.7543H15.9927C11.0692 42.7543 7.07812 38.7632 7.07812 33.8397C7.07812 29.3743 10.3649 25.6864 14.6484 25.0374C16.1951 18.8319 21.789 14.2275 28.4732 14.2275C36.3501 14.2275 42.7366 20.614 42.7366 28.4909C44.628 28.4909 46.442 29.2423 47.7794 30.5797C49.1169 31.9172 49.8682 33.7312 49.8682 35.6226C49.8682 37.514 49.1169 39.328 47.7794 40.6655C46.442 42.0029 44.628 42.7543 42.7366 42.7543Z" fill="#629986"/>
<path fill-rule="evenodd" clip-rule="evenodd" d="M42.7366 26.7082C42.7366 18.8304 36.3501 12.4448 28.4732 12.4448C21.789 12.4448 16.1951 17.0492 14.6484 23.2547C10.3649 23.9037 7.07812 27.5916 7.07812 32.057C7.07812 36.9805 11.0692 40.9716 15.9927 40.9716H23.1244C23.5973 40.9716 24.0508 40.7837 24.3851 40.4494C24.7195 40.115 24.9073 39.6615 24.9073 39.1886V34.2856C24.9073 33.931 24.7665 33.5908 24.5157 33.3401C24.2649 33.0893 23.9248 32.9484 23.5701 32.9484H20.8414C19.5292 32.9484 19.1628 32.048 20.0266 30.9471L26.9024 22.1849C27.7663 21.084 29.1801 21.084 30.0439 22.1849L36.9198 30.9471C37.7836 32.048 37.4172 32.9484 36.105 32.9484H33.3762C33.0216 32.9484 32.6814 33.0893 32.4307 33.3401C32.1799 33.5908 32.039 33.931 32.039 34.2856V39.1886C32.039 39.6615 32.2269 40.115 32.5612 40.4494C32.8956 40.7837 33.3491 40.9716 33.8219 40.9716H42.7366C44.628 40.9716 46.442 40.2202 47.7794 38.8827C49.1169 37.5453 49.8682 35.7313 49.8682 33.8399C49.8682 31.9484 49.1169 30.1345 47.7794 28.797C46.442 27.4596 44.628 26.7082 42.7366 26.7082Z" fill="#FFFFFE"/>
</svg>
