<svg width="30" height="32" viewBox="0 0 30 32" fill="none" xmlns="http://www.w3.org/2000/svg">
<path d="M29.3029 18.2025C29.1417 17.575 28.99 16.9819 28.99 16.4406C28.99 15.8994 29.1417 15.3062 29.3029 14.6787C29.5594 13.6798 29.824 12.6465 29.5073 11.6422C29.1787 10.5974 28.3597 9.91463 27.5677 9.25542C27.0929 8.85977 26.6445 8.48635 26.3535 8.07519C26.0575 7.65595 25.8481 7.0965 25.6273 6.50402C25.263 5.53072 24.8867 4.52372 24.0439 3.89148C23.2148 3.26867 22.18 3.20868 21.181 3.15139C20.5577 3.11566 19.9682 3.08129 19.4746 2.91615C19.0131 2.7618 18.5352 2.44163 18.0297 2.10259C17.2164 1.55663 16.2939 0.937866 15.2271 0.937866C14.1604 0.937866 13.2379 1.55663 12.4245 2.10327C11.9191 2.44231 11.4425 2.76315 10.9803 2.91682C10.4861 3.08196 9.8966 3.11634 9.27324 3.15206C8.2736 3.21003 7.24011 3.26934 6.41042 3.89215C5.56757 4.52439 5.1913 5.53072 4.82694 6.50402C4.60494 7.0965 4.39548 7.65662 4.09948 8.07587C3.80849 8.48838 3.3601 8.86179 2.88537 9.25812C2.09394 9.918 1.27617 10.5994 0.947561 11.6428C0.630864 12.6478 0.89551 13.6804 1.15138 14.68C1.31255 15.3076 1.46431 15.9 1.46431 16.4413C1.46431 16.9825 1.31255 17.5757 1.15138 18.2032C0.89551 19.2021 0.630864 20.2354 0.947561 21.2411C1.27617 22.2845 2.09457 22.9673 2.886 23.6265C3.36073 24.0214 3.80912 24.3955 4.09948 24.8067C4.39611 25.2259 4.60557 25.7854 4.82694 26.3785C5.1913 27.3518 5.5682 28.3588 6.41168 28.9924C7.24011 29.6139 8.27423 29.6732 9.27324 29.7305C9.8966 29.7662 10.4861 29.8006 10.9796 29.9657C11.4412 30.1201 11.9184 30.4403 12.4233 30.7786C13.2373 31.3239 14.1598 31.9433 15.2271 31.9433C16.2945 31.9433 17.2176 31.3239 18.0323 30.7779C18.5371 30.4396 19.0137 30.1194 19.4759 29.9651C19.9694 29.7999 20.5589 29.7655 21.1823 29.7298C22.1819 29.6725 23.2154 29.6132 24.0439 28.9918C24.8886 28.3582 25.2649 27.3498 25.6292 26.3758C25.8506 25.784 26.0594 25.2246 26.3542 24.8067C26.6452 24.3955 27.0935 24.0214 27.5683 23.6265C28.3603 22.9666 29.1787 22.2845 29.508 21.2404C29.8247 20.2347 29.5594 19.2021 29.3029 18.2025ZM28.3195 20.8083C28.1119 21.4675 27.4741 21.9987 26.7993 22.5608C26.282 22.9922 25.7464 23.4384 25.3551 23.9911C24.9581 24.5546 24.7073 25.2246 24.4646 25.8737C24.1554 26.7014 23.8632 27.4826 23.3257 27.8857C22.7902 28.2874 21.9768 28.3339 21.1151 28.3831C20.4422 28.4215 19.7455 28.4613 19.102 28.677C18.4868 28.8839 17.9174 29.2647 17.3674 29.6341C16.6306 30.1289 15.9351 30.5953 15.2271 30.5953C14.519 30.5953 13.8242 30.1289 13.0873 29.6341C12.538 29.2654 11.9692 28.8839 11.3533 28.677C10.7099 28.462 10.0132 28.4215 9.34026 28.3831C8.4786 28.3339 7.66459 28.2867 7.12965 27.8857C6.59284 27.4826 6.29997 26.7014 5.9908 25.8744C5.7481 25.2253 5.49663 24.5546 5.09903 23.9911C4.70834 23.4384 4.17277 22.9922 3.65477 22.5601C2.98061 21.998 2.34346 21.4675 2.13588 20.8083C1.9421 20.1943 2.14591 19.4003 2.36102 18.5604C2.53661 17.8736 2.71848 17.1645 2.71848 16.4399C2.71848 15.7153 2.53661 15.0069 2.36102 14.3201C2.14529 13.4803 1.9421 12.6869 2.13588 12.0729C2.34346 11.4137 2.97999 10.8832 3.65414 10.3211C4.17215 9.88901 4.70834 9.44213 5.09841 8.88875C5.49726 8.32526 5.7481 7.65392 5.99143 7.00483C6.29997 6.17779 6.59221 5.39726 7.1284 4.99554C7.66396 4.59314 8.4786 4.54663 9.34089 4.49743C10.0132 4.45834 10.7099 4.41857 11.3527 4.20288C11.9692 3.99662 12.5386 3.61445 13.0892 3.24508C13.8248 2.75236 14.5197 2.28593 15.2271 2.28593C15.9345 2.28593 16.6299 2.75236 17.3662 3.24643C17.9168 3.61647 18.4856 3.99797 19.102 4.20423C19.7448 4.41924 20.441 4.45901 21.1139 4.4981C21.9761 4.54731 22.7902 4.59516 23.3257 4.99689C23.8625 5.39996 24.1548 6.18049 24.4633 7.00618C24.7066 7.65595 24.9569 8.32661 25.3557 8.8901C25.7464 9.4428 26.282 9.88901 26.7993 10.3204C27.4741 10.8832 28.1119 11.4143 28.3195 12.0749C28.5133 12.6876 28.3088 13.4809 28.0937 14.3208C27.9175 15.0076 27.7356 15.7167 27.7356 16.4413C27.7356 17.1659 27.9169 17.8749 28.0937 18.5611C28.3095 19.401 28.5133 20.1943 28.3195 20.8083Z" fill="#1D1D1D"/>
<path d="M15.2271 6.32983C10.0402 6.32983 5.82031 10.8654 5.82031 16.4403C5.82031 22.0152 10.0402 26.5508 15.2271 26.5508C20.4141 26.5508 24.634 22.0152 24.634 16.4403C24.634 10.8654 20.4141 6.32983 15.2271 6.32983ZM15.2271 25.2027C10.7319 25.2027 7.07456 21.2718 7.07456 16.4403C7.07456 11.6089 10.7319 7.6779 15.2271 7.6779C17.5456 7.6779 19.6358 8.72871 21.1221 10.4044L15.1456 19.4438L11.9078 15.9638C11.6626 15.7002 11.2662 15.7002 11.021 15.9638C10.7758 16.2273 10.7758 16.6533 11.021 16.9169L14.7838 20.9611C14.9017 21.0884 15.0616 21.1585 15.2271 21.1585C15.2441 21.1585 15.2623 21.1579 15.2798 21.1558C15.4636 21.1397 15.6316 21.0365 15.7383 20.8748L21.9449 11.4869C22.8479 12.8969 23.3797 14.6022 23.3797 16.4403C23.3797 21.2718 19.7224 25.2027 15.2271 25.2027Z" fill="#1D1D1D"/>
</svg>
