<svg width="26" height="24" viewBox="0 0 26 24" fill="none" xmlns="http://www.w3.org/2000/svg">
<path d="M25.0343 0C25.0343 2.57258 25.0104 5.14747 25.0486 7.72235C25.0486 8.37354 24.86 8.61975 24.1889 8.5208C23.9917 8.49317 23.7915 8.49317 23.5943 8.5208C21.9035 8.75091 20.8074 8.2907 19.7734 6.7674C17.6241 3.61266 13.2874 2.45063 9.66705 3.65178C5.60733 5.0025 3.21925 8.30221 3.33627 12.3958C3.45328 16.1787 6.15658 19.4071 10.1136 20.4863C13.8677 21.5103 18.0468 20.079 20.1435 16.8184C20.8074 15.7829 21.4976 15.6035 22.5961 15.6311C25.0367 15.6909 25.0391 15.6495 25.0391 17.9804C25.0391 19.6832 25.008 21.3883 25.0534 23.0911C25.0701 23.7446 24.9531 23.9977 24.1698 23.9954C16.3974 23.9632 8.62426 23.9632 0.850287 23.9954C0.16491 23.9954 0.00252056 23.8067 0.00490864 23.1739C0.0303814 15.4516 0.0399325 7.72924 0.0335643 0.00690288L25.0343 0Z" fill="#010202"/>
</svg>
