<svg width="23" height="24" viewBox="0 0 23 24" fill="none" xmlns="http://www.w3.org/2000/svg">
<path d="M22.1019 0C22.1019 2.57258 22.0809 5.14747 22.1146 7.72235C22.1146 8.37354 21.948 8.61975 21.3556 8.52081C21.1815 8.49317 21.0047 8.49317 20.8306 8.52081C19.3378 8.75091 18.3701 8.2907 17.4572 6.7674C15.5596 3.61266 11.7308 2.45063 8.53447 3.65178C4.95021 5.0025 2.84182 8.30221 2.94513 12.3958C3.04844 16.1787 5.43514 19.4071 8.92874 20.4863C12.2431 21.5103 15.9328 20.079 17.784 16.8184C18.3701 15.7829 18.9794 15.6035 19.9493 15.6311C22.1041 15.6909 22.1062 15.6495 22.1062 17.9804C22.1062 19.6832 22.0788 21.3883 22.1188 23.0911C22.1336 23.7446 22.0303 23.9977 21.3387 23.9954C14.4766 23.9632 7.61381 23.9632 0.750299 23.9954C0.145191 23.9954 0.00182066 23.8067 0.00392905 23.1739C0.0264185 15.4516 0.034851 7.72924 0.0292287 0.00690288L22.1019 0Z" fill="#010202"/>
</svg>
