<svg width="11" height="6" viewBox="0 0 11 6" fill="none" xmlns="http://www.w3.org/2000/svg">
<path d="M5.5 6C5.26603 5.99914 5.03525 5.96041 4.82442 5.88661C4.61359 5.81281 4.42798 5.7058 4.28107 5.57333L0.422655 2.17333C0.197193 1.96865 0.0553136 1.722 0.0131836 1.46151C-0.0289463 1.20102 0.030368 0.937162 0.184368 0.7C0.309267 0.493884 0.513088 0.318276 0.771488 0.194148C1.02989 0.0700212 1.33195 0.00262204 1.64158 0H9.35841C9.66805 0.00262204 9.97011 0.0700212 10.2285 0.194148C10.4869 0.318276 10.6907 0.493884 10.8156 0.7C10.9696 0.937162 11.0289 1.20102 10.9868 1.46151C10.9447 1.722 10.8028 1.96865 10.5773 2.17333L6.71893 5.57333C6.57202 5.7058 6.38641 5.81281 6.17558 5.88661C5.96474 5.96041 5.73397 5.99914 5.5 6Z" fill="#0E538C"/>
</svg>
