<svg width="24" height="25" viewBox="0 0 24 25" fill="none" xmlns="http://www.w3.org/2000/svg">
<path d="M1.00195 12.4151C1.00312 17.3648 4.58036 21.5792 9.43895 22.3549V15.3229H6.90195V12.4151H9.44195V10.2016C9.32841 9.15271 9.68448 8.10737 10.4136 7.34906C11.1427 6.59076 12.1693 6.1981 13.215 6.27758C13.9655 6.28977 14.7141 6.35703 15.455 6.47881V8.95295H14.191C13.7558 8.8956 13.3183 9.0402 13.0017 9.34602C12.6851 9.65183 12.5237 10.0858 12.563 10.5256V12.4151H15.334L14.891 15.3239H12.563V22.3549C17.8174 21.5194 21.502 16.6911 20.9475 11.3678C20.3929 6.04452 15.7932 2.08988 10.4808 2.36884C5.16831 2.6478 1.0028 7.06269 1.00195 12.4151Z" fill="white"/>
</svg>
