<svg width="24" height="23" viewBox="0 0 24 23" fill="none" xmlns="http://www.w3.org/2000/svg">
<path d="M16.2927 14.9181C17.5747 13.432 18.3844 11.526 18.3844 9.42618C18.3844 4.70958 14.3697 0.865234 9.44413 0.865234C4.51857 0.865234 0.503906 4.70958 0.503906 9.42618C0.503906 14.1428 4.51857 17.9871 9.44413 17.9871C11.6033 17.9871 13.6275 17.2441 15.1794 15.9842L22.1291 22.6391C22.2978 22.8006 22.5002 22.8652 22.7027 22.8652C22.9051 22.8652 23.1075 22.8006 23.2762 22.6391C23.5798 22.3483 23.5798 21.8315 23.2762 21.5407L16.2927 14.9181ZM9.4104 16.4365C5.36199 16.4365 2.08953 13.3028 2.08953 9.42618C2.08953 5.54952 5.36199 2.4159 9.4104 2.4159C13.4588 2.4159 16.7313 5.54952 16.7313 9.42618C16.7313 13.3028 13.4588 16.4365 9.4104 16.4365Z" fill="#737576"/>
</svg>
