<svg width="26" height="24" viewBox="0 0 26 24" fill="none" xmlns="http://www.w3.org/2000/svg">
<path d="M25.9997 0C25.7753 0.352061 25.897 0.73864 25.8947 1.10911C25.8947 8.38044 25.8732 15.6518 25.9114 22.9231C25.9114 23.763 25.7203 24.0023 24.8105 23.9977C17.2339 23.9594 9.65578 23.9594 2.07603 23.9977C1.16379 23.9977 0.881991 23.8067 0.898708 22.8932C0.941693 15.661 0.924976 8.42647 0.913036 1.19195C0.913036 0.798471 1.09931 0.361268 0.757812 0.0023033L25.9997 0ZM13.343 20.813C18.4009 20.813 22.6564 16.7586 22.5848 12C22.5571 9.65326 21.5683 7.41209 19.8338 5.76448C18.0993 4.11686 15.7595 3.19624 13.3238 3.20307C8.3089 3.22148 4.15127 7.1839 4.16321 11.9471C4.17261 14.2933 5.14309 16.541 6.86353 18.2014C8.58396 19.8617 10.9152 20.8003 13.3501 20.813H13.343Z" fill="#010202"/>
</svg>
