<svg width="26" height="24" viewBox="0 0 26 24" fill="none" xmlns="http://www.w3.org/2000/svg">
<path d="M25.3712 0C25.3855 3.85887 25.3712 7.72004 25.4357 11.5812C25.4524 12.4901 24.8936 12.3014 24.373 12.3014C17.9109 12.3014 11.4464 12.3337 4.98186 12.2761C3.78782 12.2646 3.63259 12.5753 3.84991 13.6038C4.59738 17.136 7.54187 20.0215 11.1741 20.6589C13.0123 20.9971 14.9139 20.7863 16.6244 20.0548C18.3349 19.3232 19.7727 18.1058 20.7455 16.5653C21.204 15.8405 21.6506 15.539 22.5055 15.6449C23.4393 15.753 24.6715 15.2721 25.2423 15.8313C25.813 16.3904 25.3927 17.5547 25.407 18.4522C25.4333 20.0054 25.3784 21.5586 25.4309 23.1095C25.4548 23.7998 25.2781 24.0046 24.5258 24C16.7933 23.9724 9.05989 23.9724 1.32571 24C0.370486 24 0.35616 23.6387 0.358548 22.9415C0.377653 15.2959 0.377653 7.64948 0.358548 0.0023033L25.3712 0ZM12.872 9.42282C15.487 9.42282 18.0995 9.42282 20.7145 9.42282C21.1467 9.42282 21.7055 9.62071 21.3975 8.75091C20.244 5.51333 16.9461 3.2721 13.0989 3.21228C9.12755 3.15015 5.64813 5.30624 4.38723 8.54612C4.10304 9.27325 4.2129 9.45273 5.02962 9.44123C7.64217 9.39751 10.2571 9.42282 12.872 9.42282Z" fill="#010202"/>
</svg>
